<mxfile host="app.diagrams.net" modified="2021-09-11T10:19:35.426Z" agent="5.0 (Windows NT 10.0; Win64; x64) AppleWebKit/537.36 (KHTML, like Gecko) Chrome/89.0.4389.114 Safari/537.36" etag="mhIDiosx_p8mhDbP9d-b" version="15.1.4" type="github">
  <diagram id="AWD2Q3BVTs37LOyLXkD4" name="Page-1">
    <mxGraphModel dx="1662" dy="794" grid="1" gridSize="10" guides="1" tooltips="1" connect="1" arrows="1" fold="1" page="1" pageScale="1" pageWidth="827" pageHeight="1169" math="0" shadow="0">
      <root>
        <mxCell id="0" />
        <mxCell id="1" parent="0" />
        <mxCell id="wln_yg1YJ-g6kBpCFjG0-1" value="Khách hàng" style="shape=umlLifeline;perimeter=lifelinePerimeter;container=1;collapsible=0;recursiveResize=0;rounded=0;shadow=0;strokeWidth=1;" parent="1" vertex="1">
          <mxGeometry x="120" y="80" width="100" height="360" as="geometry" />
        </mxCell>
        <mxCell id="wln_yg1YJ-g6kBpCFjG0-2" value="" style="points=[];perimeter=orthogonalPerimeter;rounded=0;shadow=0;strokeWidth=1;" parent="wln_yg1YJ-g6kBpCFjG0-1" vertex="1">
          <mxGeometry x="45" y="60" width="10" height="40" as="geometry" />
        </mxCell>
        <mxCell id="wln_yg1YJ-g6kBpCFjG0-3" value="Thiết bị/Giao diện" style="shape=umlLifeline;perimeter=lifelinePerimeter;container=1;collapsible=0;recursiveResize=0;rounded=0;shadow=0;strokeWidth=1;" parent="1" vertex="1">
          <mxGeometry x="300" y="80" width="100" height="360" as="geometry" />
        </mxCell>
        <mxCell id="wln_yg1YJ-g6kBpCFjG0-4" value="" style="points=[];perimeter=orthogonalPerimeter;rounded=0;shadow=0;strokeWidth=1;" parent="wln_yg1YJ-g6kBpCFjG0-3" vertex="1">
          <mxGeometry x="45" y="100" width="10" height="40" as="geometry" />
        </mxCell>
        <mxCell id="wln_yg1YJ-g6kBpCFjG0-5" value="Click chọn vào Blog muốn xem" style="verticalAlign=bottom;endArrow=block;shadow=0;strokeWidth=1;" parent="1" source="wln_yg1YJ-g6kBpCFjG0-2" target="wln_yg1YJ-g6kBpCFjG0-4" edge="1">
          <mxGeometry relative="1" as="geometry">
            <mxPoint x="275" y="160" as="sourcePoint" />
            <mxPoint x="320" y="200" as="targetPoint" />
            <Array as="points">
              <mxPoint x="240" y="180" />
              <mxPoint x="320" y="180" />
            </Array>
          </mxGeometry>
        </mxCell>
        <mxCell id="wln_yg1YJ-g6kBpCFjG0-6" value="Hệ thống" style="shape=umlLifeline;perimeter=lifelinePerimeter;container=1;collapsible=0;recursiveResize=0;rounded=0;shadow=0;strokeWidth=1;" parent="1" vertex="1">
          <mxGeometry x="480" y="80" width="100" height="360" as="geometry" />
        </mxCell>
        <mxCell id="wln_yg1YJ-g6kBpCFjG0-7" value="" style="points=[];perimeter=orthogonalPerimeter;rounded=0;shadow=0;strokeWidth=1;" parent="wln_yg1YJ-g6kBpCFjG0-6" vertex="1">
          <mxGeometry x="45" y="140" width="10" height="40" as="geometry" />
        </mxCell>
        <mxCell id="AR-g7elsLyBKt3nDmy5w-1" value="" style="html=1;points=[];perimeter=orthogonalPerimeter;" vertex="1" parent="wln_yg1YJ-g6kBpCFjG0-6">
          <mxGeometry x="45" y="240" width="10" height="40" as="geometry" />
        </mxCell>
        <mxCell id="AR-g7elsLyBKt3nDmy5w-2" value="" style="edgeStyle=orthogonalEdgeStyle;html=1;align=left;spacingLeft=2;endArrow=block;rounded=0;entryX=1;entryY=0;" edge="1" target="AR-g7elsLyBKt3nDmy5w-1" parent="wln_yg1YJ-g6kBpCFjG0-6">
          <mxGeometry x="0.3333" y="104" relative="1" as="geometry">
            <mxPoint x="50" y="180" as="sourcePoint" />
            <Array as="points">
              <mxPoint x="80" y="180" />
            </Array>
            <mxPoint x="100" y="-74" as="offset" />
          </mxGeometry>
        </mxCell>
        <mxCell id="wln_yg1YJ-g6kBpCFjG0-8" value="Yêu cầu hệ thống" style="verticalAlign=bottom;endArrow=block;shadow=0;strokeWidth=1;" parent="1" source="wln_yg1YJ-g6kBpCFjG0-4" target="wln_yg1YJ-g6kBpCFjG0-7" edge="1">
          <mxGeometry relative="1" as="geometry">
            <mxPoint x="350" y="160.0000000000001" as="sourcePoint" />
            <mxPoint x="520" y="160.0000000000001" as="targetPoint" />
            <Array as="points">
              <mxPoint x="410" y="220" />
            </Array>
          </mxGeometry>
        </mxCell>
        <mxCell id="wln_yg1YJ-g6kBpCFjG0-11" value="Yêu cầu thành công" style="html=1;verticalAlign=bottom;endArrow=block;" parent="1" source="wln_yg1YJ-g6kBpCFjG0-7" target="wln_yg1YJ-g6kBpCFjG0-12" edge="1">
          <mxGeometry width="80" relative="1" as="geometry">
            <mxPoint x="520" y="260" as="sourcePoint" />
            <mxPoint x="460" y="300" as="targetPoint" />
            <Array as="points">
              <mxPoint x="500" y="260" />
              <mxPoint x="440" y="260" />
            </Array>
          </mxGeometry>
        </mxCell>
        <mxCell id="wln_yg1YJ-g6kBpCFjG0-12" value="" style="points=[];perimeter=orthogonalPerimeter;rounded=0;shadow=0;strokeWidth=1;" parent="1" vertex="1">
          <mxGeometry x="345" y="260" width="10" height="40" as="geometry" />
        </mxCell>
        <mxCell id="wln_yg1YJ-g6kBpCFjG0-13" value="Chuyển đến trang nội dung &lt;br&gt;của Blog tương ứng" style="html=1;verticalAlign=bottom;endArrow=block;" parent="1" source="wln_yg1YJ-g6kBpCFjG0-12" target="wln_yg1YJ-g6kBpCFjG0-1" edge="1">
          <mxGeometry width="80" relative="1" as="geometry">
            <mxPoint x="345" y="299" as="sourcePoint" />
            <mxPoint x="175" y="299" as="targetPoint" />
            <Array as="points">
              <mxPoint x="320" y="299" />
              <mxPoint x="260" y="299" />
            </Array>
          </mxGeometry>
        </mxCell>
        <mxCell id="wln_yg1YJ-g6kBpCFjG0-17" value="Xem nội dung Blogs" style="text;align=center;fontStyle=1;verticalAlign=middle;spacingLeft=3;spacingRight=3;strokeColor=none;rotatable=0;points=[[0,0.5],[1,0.5]];portConstraint=eastwest;" parent="1" vertex="1">
          <mxGeometry x="310" y="40" width="80" height="26" as="geometry" />
        </mxCell>
        <mxCell id="AR-g7elsLyBKt3nDmy5w-3" value="Yêu cầu thất bại" style="html=1;verticalAlign=bottom;endArrow=block;" edge="1" parent="1">
          <mxGeometry width="80" relative="1" as="geometry">
            <mxPoint x="525" y="360" as="sourcePoint" />
            <mxPoint x="355" y="360" as="targetPoint" />
            <Array as="points">
              <mxPoint x="500" y="360" />
              <mxPoint x="440" y="360" />
            </Array>
          </mxGeometry>
        </mxCell>
        <mxCell id="AR-g7elsLyBKt3nDmy5w-4" value="" style="points=[];perimeter=orthogonalPerimeter;rounded=0;shadow=0;strokeWidth=1;" vertex="1" parent="1">
          <mxGeometry x="345" y="360" width="10" height="40" as="geometry" />
        </mxCell>
        <mxCell id="AR-g7elsLyBKt3nDmy5w-5" value="Hiển thị yêu cầu thất bại&lt;br&gt;và reload lại trang" style="html=1;verticalAlign=bottom;endArrow=block;" edge="1" parent="1">
          <mxGeometry width="80" relative="1" as="geometry">
            <mxPoint x="345" y="400" as="sourcePoint" />
            <mxPoint x="169.5" y="400" as="targetPoint" />
            <Array as="points">
              <mxPoint x="320" y="400" />
              <mxPoint x="260" y="400" />
            </Array>
          </mxGeometry>
        </mxCell>
      </root>
    </mxGraphModel>
  </diagram>
</mxfile>
